<svg xmlns="http://www.w3.org/2000/svg" viewBox="0 0 321.57 69"><defs><style>.cls-1{fill:#fff;}.cls-2{fill:none;}</style></defs><title>Asset 7</title><g id="Layer_2" data-name="Layer 2"><g id="Layer_2-2" data-name="Layer 2"><path class="cls-1" d="M75.82,9.37H86.43V52.08H79.11V18.91l.29,1.89L71.24,47.32H64.13L56,21.38l.29-2.47V52.08H48.94V9.37h10.6l8.14,28.79Z"/><path class="cls-1" d="M100.4,51a10.44,10.44,0,0,1-4.5-4.54,15.46,15.46,0,0,1-1.54-7.19v-5a15.16,15.16,0,0,1,1.54-7.1,10.43,10.43,0,0,1,4.5-4.49,17.23,17.23,0,0,1,14.24,0,10.43,10.43,0,0,1,4.5,4.49,15.16,15.16,0,0,1,1.54,7.1v5a15.23,15.23,0,0,1-1.54,7.13,10.53,10.53,0,0,1-4.5,4.51,17.13,17.13,0,0,1-14.24,0Zm10.88-7.63a5.59,5.59,0,0,0,1.35-4v-5a5.52,5.52,0,0,0-1.35-4,5,5,0,0,0-3.79-1.41,4.93,4.93,0,0,0-3.75,1.41,5.56,5.56,0,0,0-1.33,4v5a5.67,5.67,0,0,0,1.32,4,4.87,4.87,0,0,0,3.76,1.43A5,5,0,0,0,111.28,43.34Z"/><path class="cls-1" d="M131.86,51a9.68,9.68,0,0,1-3.51-4.51,19,19,0,0,1-1.21-7.13V34.46a19.33,19.33,0,0,1,1.21-7.2,9.12,9.12,0,0,1,9.05-6.11,7.43,7.43,0,0,1,4.45,1.45,10.25,10.25,0,0,1,3.24,4.13l-.61,6.76a6.08,6.08,0,0,0-.53-2.65,3.76,3.76,0,0,0-1.54-1.66,5,5,0,0,0-2.46-.57,4.27,4.27,0,0,0-3.51,1.54,6.74,6.74,0,0,0-1.25,4.34v4.84a6.45,6.45,0,0,0,1.25,4.23,4.33,4.33,0,0,0,3.51,1.5,5,5,0,0,0,2.46-.56A3.69,3.69,0,0,0,144,42.89a5.73,5.73,0,0,0,.53-2.56l.41,7A8.07,8.07,0,0,1,142,51.16a7.8,7.8,0,0,1-4.61,1.36A9.72,9.72,0,0,1,131.86,51Zm12.62-41.6h8.05V52.08h-8.05Z"/><path class="cls-1" d="M166,50.92a10.9,10.9,0,0,1-4.78-4.67,15.54,15.54,0,0,1-1.64-7.39V35.43a17.35,17.35,0,0,1,1.57-7.73,11,11,0,0,1,4.58-4.88A14.82,14.82,0,0,1,173,21.15a11.57,11.57,0,0,1,6.85,2,12.27,12.27,0,0,1,4.33,5.8,25.22,25.22,0,0,1,1.49,9.18v2H164.81V34.69h13.51l-.09-.7a7.08,7.08,0,0,0-1.66-4.09A4.63,4.63,0,0,0,173,28.46a5.84,5.84,0,0,0-4.51,1.74,7,7,0,0,0-1.6,4.9V39a6.45,6.45,0,0,0,1.75,4.82,6.75,6.75,0,0,0,4.89,1.7,9.45,9.45,0,0,0,3.21-.57,9.83,9.83,0,0,0,2.87-1.63L184.87,48a17.46,17.46,0,0,1-5.34,3.36,15.88,15.88,0,0,1-6,1.19A16.29,16.29,0,0,1,166,50.92Z"/><path class="cls-1" d="M200.77,42a2.25,2.25,0,0,0,.63,1.71,2.47,2.47,0,0,0,1.8.61h1.36v7.75h-4.12a7.52,7.52,0,0,1-5.7-2.11,8.28,8.28,0,0,1-2-6V9.37h8.05Z"/><path class="cls-1" d="M214.87,51.11A11.43,11.43,0,0,1,210.05,47a12.55,12.55,0,0,1-2-6.43h8.32a5.22,5.22,0,0,0,.77,2.24,4,4,0,0,0,1.55,1.41,4.57,4.57,0,0,0,2.17.49,4.73,4.73,0,0,0,3.54-1.28,4.94,4.94,0,0,0,1.25-3.6v-1a6.12,6.12,0,0,0-1-3.76,3.44,3.44,0,0,0-2.9-1.32h-3.61V26h3.61a2.74,2.74,0,0,0,2.37-1.16,5.43,5.43,0,0,0,.83-3.24v-.74a4.51,4.51,0,0,0-.92-3,3.26,3.26,0,0,0-2.6-1.07,3.65,3.65,0,0,0-2,.56A4.54,4.54,0,0,0,218,18.91a7.87,7.87,0,0,0-.88,2.56h-8.28a15.17,15.17,0,0,1,2.1-6.74,11.62,11.62,0,0,1,4.57-4.32,13.26,13.26,0,0,1,6.28-1.48c3.78,0,6.71,1,8.77,2.89s3.1,4.67,3.1,8.21v1.29a8.68,8.68,0,0,1-5.76,8.46A7.54,7.54,0,0,1,232.63,33a11.38,11.38,0,0,1,1.69,6.43v1.29a12.94,12.94,0,0,1-1.47,6.38,9.61,9.61,0,0,1-4.29,4,15.31,15.31,0,0,1-6.79,1.38A16.14,16.14,0,0,1,214.87,51.11Z"/><path class="cls-1" d="M242.54,9.37h8.05V52.08h-8.05Zm4.06,35h10.25A9,9,0,0,0,263,42.42,6.83,6.83,0,0,0,265.16,37V24.44A6.83,6.83,0,0,0,263,19a9,9,0,0,0-6.14-1.91H246.6V9.37h10.07a21,21,0,0,1,9.12,1.79,12.67,12.67,0,0,1,5.75,5.23,16.42,16.42,0,0,1,2,8.28V36.78a16.49,16.49,0,0,1-1.9,8,12.91,12.91,0,0,1-5.68,5.34,20.4,20.4,0,0,1-9.29,1.91h-10Z"/><rect class="cls-2" width="321.57" height="69"/></g></g></svg>