<svg xmlns="http://www.w3.org/2000/svg" viewBox="0 0 321.57 69"><defs><style>.cls-1{fill:#fff;}.cls-2{fill:none;}</style></defs><title>Asset 9</title><g id="Layer_2" data-name="Layer 2"><g id="Layer_4" data-name="Layer 4"><path class="cls-1" d="M35,9.37h8V52.08H35Zm3.67,18.39H52.32a4.83,4.83,0,0,0,2.54-.66,4.51,4.51,0,0,0,1.72-1.87,6,6,0,0,0,.62-2.76,6.31,6.31,0,0,0-.61-2.81,4.44,4.44,0,0,0-1.7-1.88,4.89,4.89,0,0,0-2.57-.66H38.66V9.37H52.11a14.63,14.63,0,0,1,7,1.63,11.47,11.47,0,0,1,4.71,4.6,13.69,13.69,0,0,1,1.68,6.87,13.65,13.65,0,0,1-1.68,6.86,11.46,11.46,0,0,1-4.71,4.57,14.74,14.74,0,0,1-7,1.61H38.66Z"/><path class="cls-1" d="M70.39,21.59H79V52.08H70.39ZM86.1,29.2a5.85,5.85,0,0,0-2-.3,4.69,4.69,0,0,0-3.78,1.58A6.51,6.51,0,0,0,79,34.84l-.61-7.93a10.84,10.84,0,0,1,3.27-4.25,7.19,7.19,0,0,1,4.42-1.51,9.48,9.48,0,0,1,3.46.6,7.45,7.45,0,0,1,2.68,1.78l-4.7,6.55A3.64,3.64,0,0,0,86.1,29.2Z"/><path class="cls-1" d="M100.63,51a10.37,10.37,0,0,1-4.49-4.54,15.45,15.45,0,0,1-1.55-7.19v-5a15.16,15.16,0,0,1,1.55-7.1,10.36,10.36,0,0,1,4.49-4.49,17.25,17.25,0,0,1,14.25,0,10.36,10.36,0,0,1,4.49,4.49,15.16,15.16,0,0,1,1.55,7.1v5a15.23,15.23,0,0,1-1.55,7.13A10.4,10.4,0,0,1,114.88,51a17.15,17.15,0,0,1-14.25,0Zm10.89-7.63a5.59,5.59,0,0,0,1.35-4v-5a5.52,5.52,0,0,0-1.35-4,5,5,0,0,0-3.79-1.41A4.92,4.92,0,0,0,104,30.31a5.56,5.56,0,0,0-1.34,4v5a5.63,5.63,0,0,0,1.33,4,4.87,4.87,0,0,0,3.76,1.43A5,5,0,0,0,111.52,43.34Z"/><path class="cls-1" d="M132.1,51a9.63,9.63,0,0,1-3.51-4.51,18.75,18.75,0,0,1-1.21-7.13V34.46a19.17,19.17,0,0,1,1.21-7.2,9.12,9.12,0,0,1,9-6.11,7.4,7.4,0,0,1,4.45,1.45,10.19,10.19,0,0,1,3.25,4.13l-.62,6.76a6.08,6.08,0,0,0-.52-2.65,3.78,3.78,0,0,0-1.55-1.66,4.91,4.91,0,0,0-2.45-.57,4.25,4.25,0,0,0-3.51,1.54,6.74,6.74,0,0,0-1.25,4.34v4.84a6.45,6.45,0,0,0,1.25,4.23,4.31,4.31,0,0,0,3.51,1.5,4.9,4.9,0,0,0,2.45-.56,3.71,3.71,0,0,0,1.55-1.61,5.73,5.73,0,0,0,.52-2.56l.41,7a8,8,0,0,1-2.87,3.87,7.83,7.83,0,0,1-4.62,1.36A9.69,9.69,0,0,1,132.1,51Zm.47,12.23a10.35,10.35,0,0,1-4.46-3.6l5.41-5A7.05,7.05,0,0,0,136,56.36a7.71,7.71,0,0,0,3,.6,6.1,6.1,0,0,0,4.13-1.38,4.76,4.76,0,0,0,1.6-3.82V21.59h8V51.17a15.07,15.07,0,0,1-1.6,7.2,10.54,10.54,0,0,1-4.67,4.55,16.23,16.23,0,0,1-7.42,1.56A15.81,15.81,0,0,1,132.57,63.2Z"/><path class="cls-1" d="M167.51,50.66a12.52,12.52,0,0,1-5.29-5.44,18.83,18.83,0,0,1-1.82-8.62V24.88a18.83,18.83,0,0,1,1.82-8.62,12.55,12.55,0,0,1,5.29-5.45,17.19,17.19,0,0,1,8.34-1.88,14.69,14.69,0,0,1,7.2,1.73,14.13,14.13,0,0,1,5.25,5,21.74,21.74,0,0,1,2.86,8h-8.34a10.84,10.84,0,0,0-1.46-3.61A6.92,6.92,0,0,0,179,17.77a6.2,6.2,0,0,0-3.13-.79,7.45,7.45,0,0,0-3.84.92,6,6,0,0,0-2.43,2.7,10,10,0,0,0-.84,4.28V36.6a9.81,9.81,0,0,0,.84,4.26A6,6,0,0,0,172,43.55a7.45,7.45,0,0,0,3.84.92A6.56,6.56,0,0,0,179,43.7a6.71,6.71,0,0,0,2.38-2.28,10.81,10.81,0,0,0,1.41-3.64h8.34a22.12,22.12,0,0,1-2.89,8,14.23,14.23,0,0,1-5.23,5,14.65,14.65,0,0,1-7.19,1.73A17.41,17.41,0,0,1,167.51,50.66Z"/><path class="cls-1" d="M203.07,51a10.47,10.47,0,0,1-4.49-4.54A15.46,15.46,0,0,1,197,39.24v-5a15.16,15.16,0,0,1,1.54-7.1,10.47,10.47,0,0,1,4.49-4.49,17.25,17.25,0,0,1,14.25,0,10.43,10.43,0,0,1,4.5,4.49,15.16,15.16,0,0,1,1.54,7.1v5a15.23,15.23,0,0,1-1.54,7.13,10.48,10.48,0,0,1-4.5,4.51,17.15,17.15,0,0,1-14.25,0ZM214,43.34a5.59,5.59,0,0,0,1.35-4v-5a5.52,5.52,0,0,0-1.35-4,5,5,0,0,0-3.79-1.41,4.92,4.92,0,0,0-3.75,1.41,5.56,5.56,0,0,0-1.33,4v5a5.67,5.67,0,0,0,1.32,4,4.87,4.87,0,0,0,3.76,1.43A5,5,0,0,0,214,43.34Z"/><path class="cls-1" d="M234.54,51A9.63,9.63,0,0,1,231,46.46a18.75,18.75,0,0,1-1.21-7.13V34.46a19.17,19.17,0,0,1,1.21-7.2,9.12,9.12,0,0,1,9.05-6.11,7.43,7.43,0,0,1,4.45,1.45,10.25,10.25,0,0,1,3.24,4.13l-.61,6.76a6.08,6.08,0,0,0-.53-2.65,3.78,3.78,0,0,0-1.55-1.66,4.91,4.91,0,0,0-2.45-.57,4.25,4.25,0,0,0-3.51,1.54,6.74,6.74,0,0,0-1.25,4.34v4.84a6.45,6.45,0,0,0,1.25,4.23,4.31,4.31,0,0,0,3.51,1.5,4.9,4.9,0,0,0,2.45-.56,3.71,3.71,0,0,0,1.55-1.61,5.73,5.73,0,0,0,.53-2.56l.41,7a8.07,8.07,0,0,1-2.88,3.87,7.8,7.8,0,0,1-4.61,1.36A9.72,9.72,0,0,1,234.54,51Zm12.62-41.6h8.05V52.08h-8.05Z"/><path class="cls-1" d="M268.67,50.92a10.92,10.92,0,0,1-4.77-4.67,15.42,15.42,0,0,1-1.64-7.39V35.43a17.35,17.35,0,0,1,1.57-7.73,10.89,10.89,0,0,1,4.58-4.88,14.82,14.82,0,0,1,7.27-1.67,11.59,11.59,0,0,1,6.85,2,12.27,12.27,0,0,1,4.33,5.8,25.23,25.23,0,0,1,1.48,9.18v2H267.48V34.69H281l-.09-.7a7.14,7.14,0,0,0-1.66-4.09,4.63,4.63,0,0,0-3.57-1.44,5.82,5.82,0,0,0-4.51,1.74,6.94,6.94,0,0,0-1.6,4.9V39a6.41,6.41,0,0,0,1.75,4.82,6.72,6.72,0,0,0,4.89,1.7,9.4,9.4,0,0,0,3.2-.57,9.75,9.75,0,0,0,2.88-1.63L287.55,48a17.5,17.5,0,0,1-5.35,3.36,15.8,15.8,0,0,1-6,1.19A16.37,16.37,0,0,1,268.67,50.92Z"/><rect class="cls-2" width="321.57" height="69"/></g></g></svg>