<svg xmlns="http://www.w3.org/2000/svg" viewBox="0 0 321.57 69"><defs><style>.cls-1{fill:#fff;}.cls-2{fill:none;}</style></defs><title>Asset 6</title><g id="Layer_2" data-name="Layer 2"><g id="Layer_1-2" data-name="Layer 1"><path class="cls-1" d="M56.37,44.83,71,25.55a10.73,10.73,0,0,0,1.54-2.65,6.79,6.79,0,0,0,.55-2.55V20.3A3.3,3.3,0,0,0,72,17.62a4.81,4.81,0,0,0-3.17-.94A4.24,4.24,0,0,0,65.6,18a6.28,6.28,0,0,0-1.5,3.72v0H55.84v0a15.67,15.67,0,0,1,1.93-6.88,11.25,11.25,0,0,1,4.48-4.39,13.56,13.56,0,0,1,6.52-1.51,16.26,16.26,0,0,1,6.83,1.3A9.53,9.53,0,0,1,79.92,14a11.56,11.56,0,0,1,1.48,6v0a17.32,17.32,0,0,1-1,5.77,18.17,18.17,0,0,1-2.84,5.19L67,44.33h14.6v7.75H56.37Z"/><path class="cls-1" d="M89,9.37h8V52.08H89Zm4.06,35h10.25a9,9,0,0,0,6.14-1.91A6.83,6.83,0,0,0,111.6,37V24.44A6.83,6.83,0,0,0,109.43,19a9,9,0,0,0-6.14-1.91H93V9.37h10.07a21,21,0,0,1,9.12,1.79A12.67,12.67,0,0,1,118,16.39a16.42,16.42,0,0,1,2,8.28V36.78a16.49,16.49,0,0,1-1.9,8,12.91,12.91,0,0,1-5.68,5.34,20.4,20.4,0,0,1-9.29,1.91H93Z"/><path class="cls-1" d="M133.42,50.92a10.9,10.9,0,0,1-4.78-4.67A15.54,15.54,0,0,1,127,38.86V35.43a17.35,17.35,0,0,1,1.57-7.73,10.94,10.94,0,0,1,4.58-4.88,14.82,14.82,0,0,1,7.27-1.67,11.57,11.57,0,0,1,6.85,2A12.27,12.27,0,0,1,151.6,29a25.22,25.22,0,0,1,1.49,9.18v2H132.23V34.69h13.51l-.09-.7A7,7,0,0,0,144,29.9a4.63,4.63,0,0,0-3.57-1.44,5.82,5.82,0,0,0-4.51,1.74,7,7,0,0,0-1.6,4.9V39a6.41,6.41,0,0,0,1.75,4.82A6.75,6.75,0,0,0,141,45.5a9.35,9.35,0,0,0,3.2-.57A9.75,9.75,0,0,0,147,43.3L152.29,48A17.46,17.46,0,0,1,147,51.33a15.88,15.88,0,0,1-6,1.19A16.29,16.29,0,0,1,133.42,50.92Z"/><path class="cls-1" d="M166.48,52a23.67,23.67,0,0,1-4.84-1.43,17.71,17.71,0,0,1-4-2.26l5-6.2a19.23,19.23,0,0,0,4.61,2.18,15.08,15.08,0,0,0,4.58.76,12.09,12.09,0,0,0,4.38-.63c1-.42,1.55-1,1.55-1.75a1.88,1.88,0,0,0-.67-1.56,4.09,4.09,0,0,0-1.73-.74,28.13,28.13,0,0,0-3-.4l-1.07-.12-1.11-.12-.25,0-.24,0a32.65,32.65,0,0,1-5.47-1.08,7,7,0,0,1-3.48-2.48,8.6,8.6,0,0,1-1.43-5.34A8.63,8.63,0,0,1,165,22.28a18.11,18.11,0,0,1,6.76-1.13,22.66,22.66,0,0,1,4.63.47A23.34,23.34,0,0,1,180.85,23a21.83,21.83,0,0,1,3.91,2.11L180,30.93a19.65,19.65,0,0,0-4.17-1.73,15.34,15.34,0,0,0-4.18-.62,10.3,10.3,0,0,0-3.79.56q-1.35.55-1.35,1.56a1.34,1.34,0,0,0,.72,1.19,5.3,5.3,0,0,0,1.79.61c.72.13,1.76.27,3.13.43l.53.06.53.06a1.14,1.14,0,0,0,.27,0,2.06,2.06,0,0,1,.26,0,37.37,37.37,0,0,1,5.79,1.06,7.51,7.51,0,0,1,3.8,2.59,8.86,8.86,0,0,1,1.57,5.7,9,9,0,0,1-6,8.88,18.73,18.73,0,0,1-7.08,1.19A29.16,29.16,0,0,1,166.48,52Z"/><path class="cls-1" d="M190.89,9.37H199v8.05h-8.06Zm0,12.22H199V52.08h-8.06Z"/><path class="cls-1" d="M210.27,51a9.63,9.63,0,0,1-3.51-4.51,19,19,0,0,1-1.21-7.13V34.46a19.37,19.37,0,0,1,1.21-7.2,9.12,9.12,0,0,1,9.05-6.11,7.43,7.43,0,0,1,4.45,1.45,10.36,10.36,0,0,1,3.25,4.13l-.62,6.76a6.08,6.08,0,0,0-.53-2.65,3.76,3.76,0,0,0-1.54-1.66,5,5,0,0,0-2.46-.57,4.27,4.27,0,0,0-3.51,1.54,6.74,6.74,0,0,0-1.24,4.34v4.84a6.45,6.45,0,0,0,1.24,4.23,4.33,4.33,0,0,0,3.51,1.5,5,5,0,0,0,2.46-.56,3.69,3.69,0,0,0,1.54-1.61,5.73,5.73,0,0,0,.53-2.56l.41,7a8.07,8.07,0,0,1-2.88,3.87,7.8,7.8,0,0,1-4.61,1.36A9.72,9.72,0,0,1,210.27,51Zm.47,12.23a10.32,10.32,0,0,1-4.45-3.6l5.41-5a6.92,6.92,0,0,0,2.46,1.72,7.73,7.73,0,0,0,3,.6,6.12,6.12,0,0,0,4.13-1.38,4.76,4.76,0,0,0,1.6-3.82V21.59h8.05V51.17a15.19,15.19,0,0,1-1.6,7.2,10.59,10.59,0,0,1-4.67,4.55,16.23,16.23,0,0,1-7.42,1.56A15.86,15.86,0,0,1,210.74,63.2Z"/><path class="cls-1" d="M238.87,21.59h8V52.08h-8Zm17.63,12a4.6,4.6,0,0,0-1.28-3.46,5,5,0,0,0-3.63-1.24,4.6,4.6,0,0,0-3.45,1.25,4.85,4.85,0,0,0-1.22,3.51l-.62-6.75a11.35,11.35,0,0,1,3.31-4.32,7.83,7.83,0,0,1,4.83-1.44,9.08,9.08,0,0,1,7.46,3.24q2.66,3.25,2.65,9.18V52.08H256.5Z"/><rect class="cls-2" width="321.57" height="69"/></g></g></svg>