<svg xmlns="http://www.w3.org/2000/svg" viewBox="0 0 474.32 474.32"><defs><style>.cls-1{fill:#fff;}.cls-2{fill:none;}</style></defs><title>mainlog</title><g id="Layer_1" data-name="Layer 1"><polygon class="cls-1" points="299.55 71.9 299.55 46.34 196.33 46.34 196.33 149.57 299.55 149.57 299.55 175.12 402.78 175.12 402.78 71.9 299.55 71.9"/><polygon class="cls-1" points="174.93 70.71 66.35 70.71 66.35 173.34 41.79 173.34 41.79 279.14 147.59 279.14 147.59 175.12 174.93 175.12 174.93 70.71"/><polygon class="cls-1" points="328.28 195.93 328.28 301.33 301.33 301.33 301.33 323.13 172.55 323.13 172.55 298.95 66.35 298.95 66.35 407.53 170.97 407.53 170.97 429.32 301.33 429.32 301.33 409.51 411.89 409.51 411.89 301.33 429.72 301.33 429.72 195.93 328.28 195.93"/><path class="cls-1" d="M1233.58,219a22,22,0,0,1-2.36-43.81c-.86-.08-1.73-.13-2.61-.13A26.94,26.94,0,1,0,1255.55,202c0-.87,0-1.74-.13-2.6A22,22,0,0,1,1233.58,219Z" transform="translate(-992.52 39.29)"/><rect class="cls-2" width="474.32" height="474.32"/></g><g id="Layer_2" data-name="Layer 2"><path class="cls-1" d="M1163.48,134.05V264.42h130.37V134.05Zm103.63,104.42h-78.27V160.21h78.27Z" transform="translate(-992.52 39.29)"/></g></svg>