<svg xmlns="http://www.w3.org/2000/svg" viewBox="0 0 321.57 69"><defs><style>.cls-1{fill:#fff;}.cls-2{fill:none;}</style></defs><title>Asset 8</title><g id="Layer_2" data-name="Layer 2"><g id="Layer_3" data-name="Layer 3"><path class="cls-1" d="M78.06,9.37h10.6V52.08H81.35V18.91l.29,1.89L73.47,47.32H66.36L58.19,21.38l.3-2.47V52.08H51.17V9.37H61.78l8.14,28.79Z"/><path class="cls-1" d="M102.63,51a10.37,10.37,0,0,1-4.49-4.54,15.45,15.45,0,0,1-1.55-7.19v-5a15.16,15.16,0,0,1,1.55-7.1,10.36,10.36,0,0,1,4.49-4.49,17.25,17.25,0,0,1,14.25,0,10.36,10.36,0,0,1,4.49,4.49,15.16,15.16,0,0,1,1.55,7.1v5a15.23,15.23,0,0,1-1.55,7.13A10.4,10.4,0,0,1,116.88,51a17.15,17.15,0,0,1-14.25,0Zm10.88-7.63a5.59,5.59,0,0,0,1.36-4v-5a5.52,5.52,0,0,0-1.36-4,5,5,0,0,0-3.79-1.41A4.91,4.91,0,0,0,106,30.31a5.56,5.56,0,0,0-1.34,4v5a5.67,5.67,0,0,0,1.32,4,4.9,4.9,0,0,0,3.76,1.43A5,5,0,0,0,113.51,43.34Z"/><path class="cls-1" d="M127.91,21.59h14.92v6.87H127.91Zm5,28.6c-1.25-1.36-1.87-3.38-1.87-6V12.72h8V42.15a2.89,2.89,0,0,0,.44,1.72,1.52,1.52,0,0,0,1.3.6h2v7.76h-4.05C136.12,52.23,134.16,51.55,132.92,50.19Z"/><path class="cls-1" d="M180.85,28.2v8.34a17.69,17.69,0,0,1-1.92,8.39,13.64,13.64,0,0,1-5.45,5.61,16.42,16.42,0,0,1-8.17,2,17.56,17.56,0,0,1-8.24-1.86,13.41,13.41,0,0,1-5.53-5.28,15.61,15.61,0,0,1-1.95-7.9V24.88a17.44,17.44,0,0,1,1.93-8.37,13.55,13.55,0,0,1,5.45-5.6,16.35,16.35,0,0,1,8.16-2,15.84,15.84,0,0,1,7.05,1.57A14.63,14.63,0,0,1,177.57,15a16.33,16.33,0,0,1,2.93,6.67h-8.7a5.7,5.7,0,0,0-1.45-2.34,7.08,7.08,0,0,0-2.38-1.5,8.06,8.06,0,0,0-2.84-.51,7.35,7.35,0,0,0-3.77.94,6.46,6.46,0,0,0-2.53,2.67,8.57,8.57,0,0,0-.9,4v12.6a6.76,6.76,0,0,0,.92,3.53,6,6,0,0,0,2.58,2.35,8.69,8.69,0,0,0,3.88.82,7.71,7.71,0,0,0,3.8-.9,6,6,0,0,0,2.51-2.6,8.58,8.58,0,0,0,.89-4V36H166V28.2Z"/><path class="cls-1" d="M188.78,21.59h8.64V52.08h-8.64ZM204.5,29.2a6,6,0,0,0-2-.3,4.67,4.67,0,0,0-3.77,1.58,6.46,6.46,0,0,0-1.34,4.36l-.62-7.93a10.86,10.86,0,0,1,3.28-4.25,7.17,7.17,0,0,1,4.42-1.51,9.46,9.46,0,0,1,3.45.6,7.49,7.49,0,0,1,2.69,1.78l-4.7,6.55A3.64,3.64,0,0,0,204.5,29.2Z"/><path class="cls-1" d="M215.41,50.19c-1.61-1.56-2.42-3.92-2.42-7.1,0-3,.9-5.27,2.72-6.78S220.24,34,223.86,34h7.64l.41,6.14h-8a4.32,4.32,0,0,0-2.73.72,2.61,2.61,0,0,0-.91,2.19,2.44,2.44,0,0,0,1.14,2.22,6.63,6.63,0,0,0,3.47.72,11.92,11.92,0,0,0,4.8-.73A2.41,2.41,0,0,0,231.23,43l.62,4.43a4.15,4.15,0,0,1-1.51,2.79A8.64,8.64,0,0,1,227,52a15.53,15.53,0,0,1-4.25.57C219.47,52.52,217,51.75,215.41,50.19Zm15.82-17.44a4,4,0,0,0-1.41-3.26,6.2,6.2,0,0,0-4-1.14,10.63,10.63,0,0,0-3.38.55,10,10,0,0,0-3,1.56l-5-4.91a11.93,11.93,0,0,1,4.82-3.24,18.06,18.06,0,0,1,6.63-1.16,15.83,15.83,0,0,1,6.82,1.33,9.62,9.62,0,0,1,4.3,3.88,12,12,0,0,1,1.49,6.13V52.08h-7.32Z"/><path class="cls-1" d="M246.48,21.59h8.05V64.48h-8.05ZM257,51.16a7.94,7.94,0,0,1-2.88-3.87l.41-7a5.73,5.73,0,0,0,.53,2.56,3.63,3.63,0,0,0,1.54,1.61,4.93,4.93,0,0,0,2.45.56,4.31,4.31,0,0,0,3.51-1.5,6.39,6.39,0,0,0,1.25-4.23V34.49a6.68,6.68,0,0,0-1.25-4.34,4.25,4.25,0,0,0-3.51-1.54,4.93,4.93,0,0,0-2.45.57,3.7,3.7,0,0,0-1.54,1.66,6.08,6.08,0,0,0-.53,2.65l-.62-6.76a10.27,10.27,0,0,1,3.25-4.13,7.4,7.4,0,0,1,4.45-1.45,9.12,9.12,0,0,1,9.05,6.11,19.38,19.38,0,0,1,1.2,7.2v4.87a19,19,0,0,1-1.2,7.13,9.16,9.16,0,0,1-9.05,6.06A7.8,7.8,0,0,1,257,51.16Z"/><rect class="cls-2" width="321.57" height="69"/></g></g></svg>